<?xml version="1.0" standalone="no"?>
<!DOCTYPE svg PUBLIC "-//W3C//DTD SVG 20010904//EN"
 "http://www.w3.org/TR/2001/REC-SVG-20010904/DTD/svg10.dtd">
<svg version="1.0" xmlns="http://www.w3.org/2000/svg"
 width="1249.000000pt" height="1249.000000pt" viewBox="0 0 1249.000000 1249.000000"
 preserveAspectRatio="xMidYMid meet">
<metadata>
Created by potrace 1.16, written by Peter Selinger 2001-2019
</metadata>
<g transform="translate(0.000000,1249.000000) scale(0.100000,-0.100000)"
fill="#000000" stroke="none">
<path d="M3938 10143 l-2208 -3 0 -1939 0 -1939 28 -7 c15 -4 671 -9 1458 -10
1410 -3 1432 -3 1470 -23 51 -26 109 -87 129 -134 14 -35 14 -41 -5 -90 -23
-63 -101 -155 -147 -174 -27 -12 -252 -14 -1312 -14 -914 0 -1295 -3 -1333
-11 -156 -34 -252 -126 -278 -271 -6 -30 -9 -147 -8 -259 l3 -204 1305 -3
c1434 -3 1741 4 1859 38 157 45 306 136 421 256 169 177 254 371 267 606 27
488 -261 892 -723 1013 -145 38 -323 43 -1426 37 l-958 -5 0 1187 0 1186 2548
-2 2547 -3 55 -26 c77 -36 115 -71 147 -137 l28 -57 2 -1660 c2 -1140 6 -1683
14 -1735 52 -362 285 -606 646 -676 80 -16 192 -18 1268 -18 649 -1 1197 3
1218 7 l37 8 -2 365 -3 364 -1100 3 c-845 3 -1111 6 -1147 16 -88 23 -146 80
-169 165 -9 30 -11 520 -10 1856 1 1235 -1 1839 -8 1890 -27 189 -139 313
-346 384 -59 20 -77 20 -1060 21 -550 0 -1993 -1 -3207 -2z"/>
<path d="M2700 8186 l0 -964 348 -7 c191 -4 651 -5 1023 -2 629 6 683 5 765
-12 292 -60 587 -255 775 -511 43 -57 117 -202 143 -276 47 -134 59 -221 53
-403 -4 -139 -9 -183 -32 -271 -115 -439 -440 -758 -885 -868 l-105 -26 -1532
-3 -1533 -4 0 -373 0 -373 1003 -6 c1194 -7 2103 4 2252 27 522 80 947 356
1247 810 310 471 425 994 322 1471 -109 509 -455 1004 -907 1299 -221 144
-542 249 -847 276 -63 5 -351 10 -640 10 -488 0 -528 2 -565 19 -106 48 -142
168 -86 285 26 53 79 92 146 106 34 7 495 10 1486 8 l1435 -3 75 -38 c92 -47
140 -102 170 -195 31 -98 34 -318 19 -1242 -13 -824 -8 -1093 26 -1315 73
-473 305 -870 670 -1146 235 -177 506 -290 829 -346 89 -15 214 -17 1186 -20
l1086 -4 65 25 c82 30 138 66 193 121 93 92 115 174 115 421 l0 182 -1252 5
c-1215 5 -1256 6 -1343 25 -108 25 -181 50 -255 87 -238 119 -427 336 -509
585 -55 167 -52 85 -57 1705 -2 849 -8 1522 -14 1551 -26 148 -129 254 -313
322 l-72 27 -2242 3 -2243 2 0 -964z"/>
<path d="M1755 3605 c-50 -50 -22 -125 54 -141 59 -13 81 -26 81 -50 0 -44
-53 -56 -113 -25 -32 16 -38 17 -49 4 -26 -32 74 -73 142 -58 36 8 70 48 70
84 0 37 -32 68 -83 81 -46 13 -87 36 -87 50 0 18 32 40 58 40 15 0 39 -7 54
-14 26 -14 29 -13 38 4 9 16 5 22 -19 35 -48 24 -117 20 -146 -10z"/>
<path d="M2053 3615 c-36 -16 -70 -63 -79 -113 -10 -52 18 -113 68 -145 130
-84 291 58 219 193 -38 73 -127 100 -208 65z m137 -52 c63 -56 43 -157 -34
-183 -51 -17 -105 10 -124 62 -18 46 -9 82 28 119 38 39 88 39 130 2z"/>
<path d="M2328 3485 l-3 -145 103 0 c95 0 102 1 102 20 0 18 -7 20 -80 20
l-80 0 0 125 c0 117 -1 125 -19 125 -19 0 -20 -9 -23 -145z"/>
<path d="M2557 3623 c-11 -10 -8 -164 3 -204 15 -52 50 -81 107 -86 56 -5 108
21 123 63 6 14 10 72 10 130 0 97 -1 104 -20 104 -19 0 -20 -7 -20 -92 0 -103
-11 -136 -52 -155 -34 -17 -81 -1 -97 33 -6 14 -11 67 -11 119 0 85 -2 95 -18
95 -10 0 -22 -3 -25 -7z"/>
<path d="M2840 3605 c0 -23 4 -25 45 -25 l45 0 0 -120 0 -120 25 0 25 0 0 120
0 120 43 0 c50 0 57 4 50 31 -5 17 -15 19 -119 19 l-114 0 0 -25z"/>
<path d="M3293 3614 c-71 -35 -99 -141 -58 -212 27 -45 94 -76 150 -70 139 16
183 197 66 275 -41 28 -110 30 -158 7z m145 -57 c35 -35 40 -93 10 -136 -67
-100 -209 -24 -177 94 20 72 113 96 167 42z"/>
<path d="M3570 3485 c0 -138 1 -145 20 -145 19 0 20 7 20 95 0 53 4 95 9 95 6
0 43 -42 83 -94 53 -68 79 -95 96 -95 22 -1 22 0 22 145 0 145 0 145 -22 142
-22 -3 -23 -8 -24 -95 -1 -51 -5 -93 -9 -94 -3 0 -40 43 -81 95 -49 63 -82 96
-95 96 -18 0 -19 -8 -19 -145z"/>
<path d="M3907 3610 c-32 -26 -41 -63 -23 -98 11 -22 29 -33 75 -47 66 -20 85
-34 79 -62 -6 -30 -61 -39 -107 -16 -35 18 -42 18 -53 6 -10 -12 -7 -18 12
-34 65 -49 176 -27 194 39 14 49 -14 80 -95 107 -55 19 -64 25 -64 46 0 33 43
47 90 30 37 -13 55 -9 55 14 0 35 -123 47 -163 15z"/>
<path d="M4274 3618 c-23 -11 -44 -47 -44 -76 0 -34 31 -62 85 -78 87 -25 105
-54 52 -84 -23 -13 -31 -12 -75 6 -47 20 -50 20 -60 3 -10 -15 -5 -20 32 -38
90 -44 175 -13 176 65 0 45 -18 62 -90 87 -43 15 -66 28 -68 40 -8 43 47 61
98 32 24 -13 50 -5 50 16 0 30 -111 49 -156 27z"/>
<path d="M4486 3614 c-10 -26 -5 -157 8 -199 22 -74 102 -105 176 -67 51 25
60 52 60 175 0 99 -1 107 -19 107 -17 0 -19 -10 -23 -104 -4 -134 -27 -165
-105 -144 -41 11 -53 46 -53 159 0 81 -2 89 -19 89 -10 0 -22 -7 -25 -16z"/>
<path d="M4790 3485 l0 -145 25 0 c23 0 25 4 25 45 l0 45 45 0 c80 0 125 36
125 100 0 71 -44 100 -150 100 l-70 0 0 -145z"/>
<path d="M5050 3486 l0 -146 25 0 c23 0 25 4 25 45 l0 45 48 0 c52 0 104 25
122 61 17 30 4 81 -26 110 -22 21 -37 24 -110 28 l-84 3 0 -146z"/>
<path d="M5318 3495 c-2 -75 -1 -140 0 -145 2 -6 47 -10 103 -10 92 0 99 1 99
20 0 18 -7 20 -80 20 l-80 0 0 125 c0 117 -1 125 -19 125 -19 0 -20 -9 -23
-135z"/>
<path d="M5484 3615 c3 -8 28 -48 56 -90 45 -67 50 -80 50 -130 0 -52 1 -55
25 -55 24 0 25 3 25 59 0 50 5 66 33 107 18 27 43 66 55 87 l24 37 -26 0 c-21
0 -34 -13 -67 -65 -22 -36 -42 -65 -44 -65 -2 0 -18 23 -36 51 -41 65 -56 79
-81 79 -14 0 -18 -5 -14 -15z"/>
<path d="M5943 3620 c-28 -11 -40 -54 -25 -92 9 -25 7 -31 -19 -57 -77 -78 21
-176 123 -123 36 19 38 19 54 1 13 -14 21 -16 36 -8 19 10 19 11 -3 35 -23 25
-23 26 -6 56 9 16 15 34 11 39 -10 17 -31 9 -43 -18 l-12 -26 -26 26 -26 26
32 30 c28 26 32 36 26 59 -14 56 -61 76 -122 52z"/>
<path d="M6320 3503 c-77 -178 -73 -163 -47 -163 17 0 28 10 40 35 l17 35 70
0 c68 0 71 -1 81 -27 12 -33 36 -54 54 -47 10 4 -3 43 -49 147 -54 123 -65
142 -87 145 -22 2 -29 -8 -79 -125z"/>
<path d="M6590 3483 l0 -148 100 3 c90 3 100 5 100 22 0 17 -9 20 -77 22 l-78
3 -3 123 c-2 114 -4 122 -22 122 -19 0 -20 -7 -20 -147z"/>
<path d="M6830 3486 l0 -146 100 0 c93 0 100 1 100 20 0 18 -7 20 -75 20 l-74
0 -3 123 c-3 118 -4 122 -25 125 -23 3 -23 3 -23 -142z"/>
<path d="M7187 3623 c-4 -3 -7 -69 -7 -145 l0 -138 110 0 c103 0 110 1 110 20
0 18 -7 20 -85 20 l-85 0 0 40 0 40 75 0 c68 0 75 2 75 20 0 17 -8 19 -72 22
l-73 3 0 40 0 40 83 3 c74 3 82 5 82 22 0 19 -7 20 -103 20 -57 0 -107 -3
-110 -7z"/>
<path d="M7450 3485 l0 -145 76 0 c127 0 193 56 181 156 -10 90 -71 133 -189
134 l-68 0 0 -145z m170 76 c33 -24 47 -79 30 -121 -19 -45 -49 -62 -107 -58
l-48 3 -3 90 c-1 50 0 96 3 102 6 18 93 6 125 -16z"/>
<path d="M7905 3618 c-31 -17 -45 -39 -45 -73 0 -41 22 -60 98 -86 53 -18 62
-24 62 -45 0 -44 -70 -54 -127 -18 -18 11 -23 11 -34 -2 -11 -13 -9 -19 11
-34 53 -41 145 -37 180 7 43 55 12 112 -74 137 -65 19 -82 36 -66 65 12 24 54
28 95 9 21 -10 29 -9 42 5 16 15 14 18 -20 32 -42 17 -93 19 -122 3z"/>
<path d="M8117 3613 c-4 -15 -2 -242 2 -265 0 -5 48 -8 106 -8 98 0 105 1 105
20 0 18 -7 20 -85 20 l-85 0 0 40 0 40 75 0 c68 0 75 2 75 20 0 17 -8 19 -72
22 l-73 3 0 40 0 40 83 3 c74 3 82 5 82 22 0 19 -7 20 -104 20 -91 0 -105 -2
-109 -17z"/>
<path d="M8380 3486 c0 -134 1 -144 19 -149 27 -7 31 0 31 55 0 48 0 48 33 48
29 0 38 -7 71 -54 31 -45 40 -52 61 -48 l25 4 -36 49 -36 49 27 22 c37 29 48
63 35 104 -15 45 -60 64 -154 64 l-76 0 0 -144z"/>
<path d="M8643 3608 c4 -19 49 -131 100 -251 8 -19 18 -27 32 -25 15 2 33 34
77 138 32 74 58 141 58 148 0 8 -9 12 -22 10 -18 -2 -30 -22 -64 -108 -22 -58
-45 -103 -50 -102 -5 2 -27 50 -49 105 -34 86 -44 103 -64 105 -20 3 -23 0
-18 -20z"/>
<path d="M9130 3611 c-69 -37 -96 -139 -55 -208 24 -40 82 -73 131 -73 43 0
104 32 104 54 0 25 -15 26 -58 5 -36 -18 -46 -19 -77 -9 -44 15 -67 48 -69
100 -2 81 77 132 151 96 29 -14 38 -15 44 -4 14 21 11 27 -21 43 -40 20 -108
19 -150 -4z"/>
<path d="M9360 3486 l0 -145 101 -3 c108 -3 125 1 116 26 -5 13 -22 16 -87 16
l-80 0 0 40 0 40 75 0 c68 0 75 2 75 20 0 18 -7 20 -75 20 l-75 0 0 45 0 45
80 0 c73 0 80 2 80 20 0 19 -7 20 -105 20 l-105 0 0 -144z"/>
<path d="M9646 3609 c-20 -16 -26 -29 -26 -59 0 -46 26 -71 94 -90 53 -15 70
-31 61 -59 -9 -30 -58 -36 -105 -13 -27 13 -42 16 -50 8 -17 -17 -12 -25 32
-47 108 -55 224 30 157 115 -11 14 -24 26 -29 26 -5 0 -34 9 -65 21 -37 14
-55 26 -55 38 0 41 56 54 110 26 27 -14 30 -14 40 5 10 18 7 22 -24 35 -51 21
-108 19 -140 -6z"/>
<path d="M10060 3623 c-80 -32 -116 -151 -67 -223 46 -68 128 -88 198 -48 43
24 46 30 25 47 -11 9 -22 7 -50 -10 -101 -60 -199 82 -117 170 33 36 74 41
123 15 26 -14 32 -14 45 -2 12 12 11 17 -7 33 -21 19 -119 31 -150 18z"/>
<path d="M10334 3616 c-69 -30 -104 -137 -66 -206 22 -41 90 -80 140 -80 68 0
135 59 147 129 9 54 -22 123 -67 151 -38 23 -108 26 -154 6z m127 -47 c96 -68
24 -225 -88 -188 -84 27 -98 154 -20 193 43 21 73 20 108 -5z"/>
<path d="M10608 3624 c-5 -4 -8 -70 -8 -146 l0 -138 25 0 c23 0 25 3 25 50 l0
50 34 0 c29 0 39 -7 70 -49 22 -29 46 -51 61 -53 14 -3 25 -2 25 1 0 3 -16 30
-35 59 -20 28 -31 52 -25 52 6 0 22 11 35 25 33 32 33 84 1 121 -21 26 -30 28
-112 32 -49 2 -92 1 -96 -4z"/>
<path d="M10890 3485 l0 -145 25 0 c23 0 25 4 25 45 l0 45 49 0 c91 0 146 64
116 136 -19 46 -60 64 -145 64 l-70 0 0 -145z"/>
</g>
</svg>
